<svg width="32" height="32" viewBox="0 0 32 32" fill="none" xmlns="http://www.w3.org/2000/svg">
<rect width="32" height="32" rx="4" fill="white"/>
<path d="M8.9 21.6C9.4 21.4 9.8 21 10 20.6L19.1 5.7C19.6 4.9 20.3 4.2 21.1 3.8C21.9 3.3 22.9 3.1 23.8 3.2H31.9V3.3C31.6 1.4 30 0 28 0H4C2 0 0.4 1.4 0.1 3.3V3.2H19.5L18.5 4.8H0V6H17.7L16.8 7.6H0V8.8H16L15 10.4H0V21.6L7.6 21.9C8 21.9 8.5 21.8 8.9 21.6Z" fill="#EE3129"/>
<path d="M24.9 10.8C24.4 11.1 23.9 11.5 23.6 12.1L14.4 27.1C14 27.7 13.4 28.3 12.7 28.6C12.1 28.9 11.3 29.1 10.6 29.1L0.0999985 28.8C0.499998 30.6 2.1 32 4 32H28C30.2 32 32 30.2 32 28V10.4H26.7C26.1 10.3 25.5 10.5 24.9 10.8Z" fill="#EE3129"/>
<path d="M21.9 5.09984C21.4 5.39984 20.9 5.79984 20.6 6.39984L11.4 21.3998C11 21.9998 10.4 22.5998 9.7 22.8998C9 23.2998 8.3 23.3998 7.6 23.3998L0 23.1998V24.3998L9 24.6998C9.4 24.6998 9.9 24.5998 10.3 24.3998C10.8 24.1998 11.1 23.7998 11.4 23.3998L20.5 8.49984C21 7.69984 21.7 6.99984 22.5 6.59984C23.3 6.09984 24.2 5.89984 25.1 5.99984H32V4.69984H23.7C23.1 4.59984 22.5 4.79984 21.9 5.09984Z" fill="#EE3129"/>
<path d="M23.3 8.00003C22.8 8.30003 22.3 8.70003 22 9.30003L12.8 24.3C12.4 24.9 11.8 25.5 11.1 25.8C10.4 26.2 9.7 26.3 9 26.3L0 26V27.2L10.6 27.5C11 27.5 11.5 27.4 11.9 27.2C12.4 27 12.8 26.6 13 26.2L22.1 11.3C22.6 10.5 23.3 9.80003 24.1 9.40003C24.9 8.90003 25.9 8.70003 26.8 8.80003H32V7.60003H25.2C24.5 7.50003 23.9 7.60003 23.3 8.00003Z" fill="#EE3129"/>
</svg>
