<svg width="32" height="32" viewBox="0 0 32 32" fill="none" xmlns="http://www.w3.org/2000/svg">
<g clip-path="url(#clip0)">
<path d="M0 4C0 1.8 1.8 0 4 0H28C30.2 0 32 1.8 32 4V28C32 30.2 30.2 32 28 32H4C1.8 32 0 30.2 0 28V4Z" fill="white"/>
<path d="M30 10.5996C28.4 10.5996 27.6 10.5996 26.9 10.9996C26.2 11.3996 25.8 11.9996 24.9 13.3996L16.8 25.9996C15.9 27.2996 15.5 27.9996 14.8 28.3996C14.1 28.7996 13.3 28.7996 11.7 28.7996H0.0999756C0.399976 30.5996 1.99998 31.9996 3.99998 31.9996H28C30.2 31.9996 32 30.1996 32 27.9996V10.5996H30Z" fill="#EE3129"/>
<path d="M26 4.59961C24.4 4.59961 23.6 4.59961 22.9 4.99961C22.2 5.39961 21.8 5.99961 20.9 7.39961L12.8 19.9996C11.9 21.2996 11.5 21.9996 10.8 22.3996C10.1 22.7996 9.3 22.7996 7.7 22.7996H0V24.2996H8.9C10.5 24.2996 11.3 24.2996 12 23.8996C12.7 23.4996 13.1 22.8996 14 21.4996L22.2 8.89961C23.1 7.59961 23.5 6.89961 24.2 6.49961C24.9 6.09961 25.7 6.09961 27.3 6.09961H32V4.59961H26Z" fill="#EE3129"/>
<path d="M14 26.7996C14.7 26.3996 15.1 25.7996 16 24.3996L24.2 11.7996C25.1 10.4996 25.5 9.79961 26.2 9.39961C26.9 8.99961 27.7 8.99961 29.3 8.99961H32V7.59961H28C26.4 7.59961 25.6 7.59961 24.9 7.99961C24.2 8.39961 23.8 8.99961 22.9 10.3996L14.8 22.9996C13.9 24.2996 13.5 24.9996 12.8 25.3996C12.1 25.7996 11.3 25.7996 9.7 25.7996H0V27.2996H10.9C12.5 27.1996 13.3 27.1996 14 26.7996Z" fill="#EE3129"/>
<path d="M19.6 3.1C19.4 3.4 19.2 3.7 19 4L18.6 4.6H0V6.1H17.7L16.7 7.6H0V9.1H15.7L14.7 10.6H0V21.2H6.9C8.5 21.2 9.3 21.2 10 20.8C10.7 20.4 11.1 19.8 12 18.4L20.2 5.8C21.1 4.5 21.5 3.8 22.2 3.4C22.9 3 23.7 3 25.3 3H32C31.5 1.3 29.9 0 28 0H4C2.1 0 0.5 1.3 0.0999999 3.1H19.6Z" fill="#EE3129"/>
</g>
<defs>
<clipPath id="clip0">
<rect width="32" height="32" fill="white"/>
</clipPath>
</defs>
</svg>
