<svg width="44" height="43" viewBox="0 0 44 43" fill="none" xmlns="http://www.w3.org/2000/svg">
<path d="M0.5 5.375C0.5 2.41875 2.91875 0 5.875 0H38.125C41.0812 0 43.5 2.41875 43.5 5.375V37.625C43.5 40.5812 41.0812 43 38.125 43H5.875C2.91875 43 0.5 40.5812 0.5 37.625V5.375Z" fill="#00194D"/>
<path d="M40.8124 14.2438C38.6624 14.2438 37.5874 14.2438 36.6468 14.7813C35.7062 15.3188 35.1687 16.125 33.9593 18.0063L23.0749 34.9375C21.8655 36.6844 21.328 37.625 20.3874 38.1625C19.4468 38.7 18.3718 38.7 16.2218 38.7H0.634277C1.0374 41.1188 3.1874 43 5.8749 43H38.1249C41.0812 43 43.4999 40.5813 43.4999 37.625V14.2438H40.8124Z" fill="white"/>
<path d="M35.4375 6.18127C33.2875 6.18127 32.2125 6.18127 31.2719 6.71877C30.3312 7.25627 29.7937 8.06252 28.5844 9.94377L17.7 26.875C16.4906 28.6219 15.9531 29.5625 15.0125 30.1C14.0719 30.6375 12.9969 30.6375 10.8469 30.6375H0.5V32.6531H12.4594C14.6094 32.6531 15.6844 32.6531 16.625 32.1156C17.5656 31.5781 18.1031 30.7719 19.3125 28.8906L30.3313 11.9594C31.5406 10.2125 32.0781 9.2719 33.0187 8.7344C33.9594 8.1969 35.0344 8.1969 37.1844 8.1969H43.5V6.18127H35.4375Z" fill="white"/>
<path d="M19.3125 36.0125C20.2531 35.475 20.7906 34.6688 22 32.7875L33.0187 15.8563C34.2281 14.1094 34.7656 13.1688 35.7062 12.6313C36.6469 12.0938 37.7219 12.0938 39.8719 12.0938H43.5V10.2125H38.125C35.975 10.2125 34.9 10.2125 33.9594 10.75C33.0187 11.2875 32.4812 12.0938 31.2719 13.975L20.3875 30.9063C19.1781 32.6531 18.6406 33.5938 17.7 34.1313C16.7594 34.6688 15.6844 34.6688 13.5344 34.6688H0.5V36.6844H15.1469C17.2969 36.55 18.3719 36.55 19.3125 36.0125Z" fill="white"/>
<path d="M26.8375 4.16563C26.5688 4.56875 26.3 4.97188 26.0312 5.375L25.4937 6.18125H0.5V8.19687H24.2844L22.9406 10.2125H0.5V12.2281H21.5969L20.2531 14.2438H0.5V28.4875H9.77187C11.9219 28.4875 12.9969 28.4875 13.9375 27.95C14.8781 27.4125 15.4156 26.6062 16.625 24.725L27.6438 7.79375C28.8531 6.04688 29.3906 5.10625 30.3313 4.56875C31.2719 4.03125 32.3469 4.03125 34.4969 4.03125H43.5C42.8281 1.74687 40.6781 0 38.125 0H5.875C3.32188 0 1.17187 1.74687 0.634375 4.16563H26.8375Z" fill="white"/>
</svg>
