<svg width="166" height="45" viewBox="0 0 166 45" fill="none" xmlns="http://www.w3.org/2000/svg">
<path d="M65.4002 4L50.4002 25.8H48.7002V0.5H50.6002V22.3L65.6002 0.5H67.3002V25.9H65.4002V4Z" fill="white"/>
<path d="M72.2 13.1C72.2 11.4 72.5 9.6 73.2 8C73.9 6.4 74.8 4.9 76.1 3.7C77.3 2.5 78.8 1.5 80.4 0.9C82 0.3 83.7 0 85.5 0C87.7 0 89.8 0.5 91.8 1.6C93.7 2.7 95.3 4.2 96.4 6.1L94.7 7.1C93.8 5.5 92.4 4.1 90.8 3.2C89.2 2.3 87.4 1.8 85.5 1.8C84 1.8 82.5 2 81.2 2.6C79.8 3.1 78.6 4 77.5 5C76.4 6.1 75.6 7.3 75.1 8.7C74.5 10.1 74.3 11.6 74.3 13.1C74.3 14.6 74.5 16.1 75.1 17.5C75.7 18.9 76.5 20.1 77.5 21.2C78.6 22.3 79.8 23.1 81.2 23.6C82.6 24.1 84.1 24.4 85.5 24.4C87.4 24.4 89.2 24 90.9 23C92.5 22.1 93.9 20.7 94.8 19.1L96.5 20.1C95.4 22 93.8 23.6 91.9 24.7C90 25.8 87.8 26.3 85.6 26.3C83.9 26.3 82.1 26 80.5 25.4C78.9 24.8 77.4 23.8 76.2 22.6C75 21.4 74 19.9 73.3 18.3C72.4 16.6 72.1 14.8 72.2 13.1Z" fill="white"/>
<path d="M116.9 0.399805L108.5 20.1998C106.7 24.3998 104.2 25.9998 100.8 25.6998V23.8998C103.5 24.1998 105.3 22.9998 106.6 19.8998L107 18.8998L98.1001 0.299805H100.1L107.9 16.6998L114.9 0.299805H116.9V0.399805Z" fill="white"/>
<path d="M144.3 25.7999L133.2 13.1999V25.7999H131.2V13.1999L120.1 25.7999H117.8L129.4 12.6999L118.2 0.399902H120.5L131.3 12.2999V0.399902H133.3V12.2999L144.1 0.399902H146.4L135.3 12.6999L146.9 25.7999H144.3Z" fill="white"/>
<path d="M166 2.1999H158V25.7999H156V2.1999H148V0.399902H165.9V2.1999H166Z" fill="white"/>
<path d="M48.5 36.4003C48.5 32.7003 51.3 29.8003 55.2 29.8003C57.6 29.8003 59.6 31.0003 60.7 32.9003L59.8 33.4003C59 31.8003 57.2 30.8003 55.2 30.8003C51.8 30.8003 49.5 33.3003 49.5 36.5003C49.5 39.6003 51.8 42.2003 55.2 42.2003C57.2 42.2003 59 41.1003 59.9 39.5003L60.8 40.0003C59.8 41.9003 57.7 43.1003 55.3 43.1003C51.2 43.0003 48.5 40.0003 48.5 36.4003Z" fill="white" stroke="white" stroke-width="0.2"/>
<path d="M62.2002 36.4003C62.2002 32.7003 65.0002 29.8003 68.9002 29.8003C71.3002 29.8003 73.3002 31.0003 74.4002 32.9003L73.5002 33.4003C72.7002 31.8003 70.9002 30.8003 68.9002 30.8003C65.5002 30.8003 63.2002 33.3003 63.2002 36.5003C63.2002 39.6003 65.5002 42.2003 68.9002 42.2003C70.9002 42.2003 72.7002 41.1003 73.6002 39.5003L74.5002 40.0003C73.5002 41.9003 71.4002 43.1003 69.0002 43.1003C65.0002 43.0003 62.2002 40.0003 62.2002 36.4003Z" fill="white" stroke="white" stroke-width="0.2"/>
<path d="M85.8001 42.8H84.8001V30.9H77.6001V42.8H76.6001V30H85.7001V42.8H85.8001Z" fill="white" stroke="white" stroke-width="0.2"/>
<path d="M88.1001 44.6001L95.4001 28.1001H96.1001L88.9001 44.6001H88.1001Z" fill="white" stroke="white" stroke-width="0.2"/>
<path d="M107.1 30L102.8 40C101.9 42.1 100.6 42.9 98.9 42.8V41.9C100.3 42 101.2 41.4 101.8 39.9L102 39.4L97.5 30H98.5L102.4 38.3L105.9 30H107.1Z" fill="white" stroke="white" stroke-width="0.2"/>
<path d="M116.8 30.9H112.8V42.8H111.8V30.9H107.8V30H116.8V30.9Z" fill="white" stroke="white" stroke-width="0.2"/>
<path d="M127.1 34C127.1 36.2 125.4 37.9 123.1 37.9H119.7V42.8H118.7V30H123.1C125.5 30 127.1 31.7 127.1 34ZM126.2 34C126.2 32.2 124.9 30.9 123.2 30.9H119.8V37H123.2C124.9 37 126.2 35.7 126.2 34Z" fill="white" stroke="white" stroke-width="0.2"/>
<path d="M0 5.375C0 2.41875 2.41875 0 5.375 0H37.625C40.5812 0 43 2.41875 43 5.375V37.625C43 40.5812 40.5812 43 37.625 43H5.375C2.41875 43 0 40.5812 0 37.625V5.375Z" fill="#00194D"/>
<path d="M40.3124 14.2438C38.1624 14.2438 37.0874 14.2438 36.1468 14.7813C35.2062 15.3188 34.6687 16.125 33.4593 18.0063L22.5749 34.9375C21.3655 36.6844 20.828 37.625 19.8874 38.1625C18.9468 38.7 17.8718 38.7 15.7218 38.7H0.134277C0.537402 41.1188 2.6874 43 5.3749 43H37.6249C40.5812 43 42.9999 40.5813 42.9999 37.625V14.2438H40.3124Z" fill="white"/>
<path d="M34.9375 6.18127C32.7875 6.18127 31.7125 6.18127 30.7719 6.71877C29.8312 7.25627 29.2937 8.06252 28.0844 9.94377L17.2 26.875C15.9906 28.6219 15.4531 29.5625 14.5125 30.1C13.5719 30.6375 12.4969 30.6375 10.3469 30.6375H0V32.6531H11.9594C14.1094 32.6531 15.1844 32.6531 16.125 32.1156C17.0656 31.5781 17.6031 30.7719 18.8125 28.8906L29.8313 11.9594C31.0406 10.2125 31.5781 9.2719 32.5187 8.7344C33.4594 8.1969 34.5344 8.1969 36.6844 8.1969H43V6.18127H34.9375Z" fill="white"/>
<path d="M18.8125 36.0125C19.7531 35.475 20.2906 34.6688 21.5 32.7875L32.5187 15.8563C33.7281 14.1094 34.2656 13.1688 35.2062 12.6313C36.1469 12.0938 37.2219 12.0938 39.3719 12.0938H43V10.2125H37.625C35.475 10.2125 34.4 10.2125 33.4594 10.75C32.5187 11.2875 31.9812 12.0938 30.7719 13.975L19.8875 30.9063C18.6781 32.6531 18.1406 33.5938 17.2 34.1313C16.2594 34.6688 15.1844 34.6688 13.0344 34.6688H0V36.6844H14.6469C16.7969 36.55 17.8719 36.55 18.8125 36.0125Z" fill="white"/>
<path d="M26.3375 4.16563C26.0688 4.56875 25.8 4.97188 25.5312 5.375L24.9937 6.18125H0V8.19687H23.7844L22.4406 10.2125H0V12.2281H21.0969L19.7531 14.2438H0V28.4875H9.27187C11.4219 28.4875 12.4969 28.4875 13.4375 27.95C14.3781 27.4125 14.9156 26.6062 16.125 24.725L27.1438 7.79375C28.3531 6.04688 28.8906 5.10625 29.8313 4.56875C30.7719 4.03125 31.8469 4.03125 33.9969 4.03125H43C42.3281 1.74687 40.1781 0 37.625 0H5.375C2.82188 0 0.671875 1.74687 0.134375 4.16563H26.3375Z" fill="white"/>
</svg>
