<svg width="167" height="46" viewBox="0 0 167 46" fill="none" xmlns="http://www.w3.org/2000/svg">
<path d="M66.3 4.8999L51.3 26.6999H49.6V1.3999H51.5V23.1999L66.5 1.3999H68.2V26.7999H66.3V4.8999Z" fill="white"/>
<path d="M73.1 14.1C73 6.99996 78.6 1.09996 85.7 0.999958C85.9 0.999958 86.1 0.999958 86.2 0.999958C90.7 0.899958 94.8 3.19996 97.1 7.09996L95.4 8.09996C93.5 4.79996 90 2.79996 86.2 2.89996C80.2 2.69996 75.1 7.49996 75 13.6C75 13.7 75 13.9 75 14C74.9 20.1 79.7 25.1 85.7 25.3C85.9 25.3 86 25.3 86.2 25.3C90 25.4 93.6 23.3 95.4 20L97.1 21C94.9 24.9 90.7 27.3 86.2 27.2C79.1 27.4 73.2 21.7 73 14.6C73.1 14.4 73.1 14.2 73.1 14.1Z" fill="white"/>
<path d="M117.8 1.3999L109.4 21.1999C107.6 25.3999 105.1 26.9999 101.7 26.6999V24.9999C104.4 25.2999 106.2 24.0999 107.5 20.9999L107.9 19.9999L99 1.3999H101L108.8 17.7999L115.8 1.3999H117.8Z" fill="white"/>
<path d="M145.2 26.8L134.1 14.2V26.8H132.1V14.2L121 26.8H118.7L130.3 13.7L119 1.40005H121.3L132.1 13.3V1.40005H134.1V13.2L144.9 1.30005H147.2L136 13.7L147.6 26.8H145.2Z" fill="white"/>
<path d="M166.9 3.1999H158.9V26.7999H156.9V3.1999H148.9V1.3999H166.8L166.9 3.1999Z" fill="white"/>
<path d="M60.7 40.7C59.7 42.4 57.9 43.4 56 43.4C52.9 43.6 50.2 41.4 50 38.2999C49.8 35.1999 52 32.4999 55.1 32.2999C55.4 32.2999 55.6 32.2999 55.9 32.2999C57.8 32.2999 59.5 33.3 60.5 34.9H60.6L61.5 34.4V34.2999C60.3 32.3999 58.3 31.2 56 31.2C52.3 31.2 49.3 34.2 49.3 37.9C49.3 41.6 52.3 44.5999 56 44.5999C58.3 44.5999 60.4 43.4 61.6 41.4V41.2999L60.7 40.7Z" fill="white"/>
<path d="M74.5 40.7001C73.5 42.4001 71.7 43.4001 69.8 43.4001C66.7 43.4001 64.2 40.9001 64.2 37.8001C64.2 34.7001 66.7 32.2001 69.8 32.2001C71.7 32.2001 73.4 33.2001 74.4 34.8001H74.5L75.4 34.3001V34.2001C74.2 32.2001 72.1 31.1001 69.9 31.1001C66.2 31.1001 63.2 34.1001 63.2 37.8001C63.2 41.5001 66.2 44.5001 69.9 44.5001C72.2 44.5001 74.3 43.3001 75.5 41.3001V41.2001L74.5 40.7001Z" fill="white"/>
<path d="M77.6 31.3C77.5 31.3 77.5 31.3 77.6 31.3L77.5 44.2001C77.5 44.2001 77.5 44.3 77.6 44.3H78.6C78.6 44.3 78.7 44.3001 78.7 44.2001V32.3H85.7V44.1C85.7 44.1 85.7 44.2001 85.8 44.2001H86.8C86.8 44.2001 86.9 44.2 86.9 44.1V31.4C86.9 31.4 86.9 31.3 86.8 31.3H77.6Z" fill="white"/>
<path d="M97.1 29.5H96.4C96.4 29.5 96.4 29.5 96.3 29.5L89 45.9C89 45.9 89 45.9 89 46C89 46 89 46 89.1 46H89.8C89.8 46 89.8 46 89.9 46L97.2 29.5C97.2 29.5 97.2 29.5 97.1 29.5C97.2 29.5 97.1 29.5 97.1 29.5Z" fill="white"/>
<path d="M108 31.3H107C107 31.3 107 31.3 106.9 31.3L103.4 39.4001L99.5 31.3C99.5 31.3 99.5 31.3 99.4 31.3H98.4C98.4 31.3 98.4 31.3 98.3 31.3C98.3 31.3 98.3 31.3 98.3 31.4L102.8 40.7001L102.6 41.2001C102 42.7001 101.1 43.3001 99.7 43.2001H99.6C99.6 43.2001 99.6 43.2 99.6 43.3V44.2001C99.6 44.2001 99.6 44.3 99.7 44.3H100.1C101.7 44.3 102.9 43.4001 103.7 41.4001L108 31.3C108.1 31.4 108.1 31.3 108 31.3C108.1 31.3 108 31.3 108 31.3Z" fill="white"/>
<path d="M108.7 31.2999C108.6 31.2999 108.6 31.2999 108.7 31.2999C108.6 31.3999 108.6 31.3999 108.7 31.2999L108.6 32.2999C108.6 32.2999 108.6 32.4 108.7 32.4H112.7V44.2C112.7 44.2 112.7 44.2999 112.8 44.2999H113.8C113.8 44.2999 113.9 44.3 113.9 44.2V32.2999H117.9C117.9 32.2999 118 32.3 118 32.2V31.2999C118 31.2999 118 31.2 117.9 31.2L108.7 31.2999Z" fill="white"/>
<path d="M124.1 31.3H119.8C119.8 31.3 119.7 31.3 119.7 31.4V44.2001C119.7 44.2001 119.7 44.3 119.8 44.3H120.8C120.8 44.3 120.9 44.3001 120.9 44.2001V39.4001H124.2C126.4 39.4001 128.2 37.6001 128.2 35.4001C128.2 33.2001 126.3 31.3 124.1 31.3ZM124.1 38.3H120.8V32.4H124.1C125.7 32.6 126.9 34.2 126.6 35.8C126.4 37.1 125.4 38.1 124.1 38.3Z" fill="white"/>
<path d="M0.900024 1.3999V5.9999H26.5L25.6 7.4999H0.900024V8.6999H24.9L24 10.0999H0.900024V11.5999H23.1L22.2 13.0999H0.900024V30.7999H10C10.9 30.7999 11.7 30.5999 12.5 30.1999C13.3 29.7999 13.9 29.1999 14.4 28.4999L26.7 8.3999C27.2 7.4999 27.9 6.7999 28.8 6.3999C29.7 5.8999 30.7 5.6999 31.7 5.7999H43.9V1.3999H0.900024Z" fill="white"/>
<path d="M31.6 10.5C31 10.8 30.4 11.4 30.1 12L17.8 32.2C17.2 33.1 16.4 33.9 15.4 34.4C14.4 34.9 13.4 35.2 12.3 35.2C12.3 35.2 12.3 35.2 12.2 35.2H0.900024V37H14.1C15 37 15.8 36.8 16.6 36.4C17.4 36 18 35.4 18.5 34.7L30.8 14.6C31.3 13.7 32 13 32.9 12.6C33.8 12.1 34.8 11.9 35.8 12H44V10.1H33.8C33 9.99999 32.3 10.2 31.6 10.5Z" fill="white"/>
<path d="M33.5 13.7998C32.9 14.0998 32.3 14.6998 32 15.2998L19.7 35.3998C19.1 36.2998 18.3 37.0998 17.3 37.5998C16.3 38.0998 15.3 38.3998 14.2 38.3998C14.2 38.3998 14.2 38.3998 14.1 38.3998H0.900024V44.2998H43.9V13.2998H35.7C34.9 13.2998 34.2 13.3998 33.5 13.7998Z" fill="white"/>
<path d="M29.5 7.59989C28.9 7.89989 28.3 8.49989 28 9.09989L15.6 29.1999C15 30.0999 14.2 30.8999 13.2 31.3999C12.2 31.8999 11.2 32.1999 10.1 32.1999C10.1 32.1999 10.1 32.1999 10 32.1999H0.900024V33.6999H12.2C13.1 33.6999 13.9 33.4999 14.7 33.0999C15.5 32.6999 16.1 32.0999 16.6 31.3999L28.9 11.2999C29.4 10.4999 30.1 9.69989 31 9.29989C31.9 8.79989 32.9 8.59989 33.9 8.69989H43.9V7.19989H31.6C30.9 7.09989 30.1 7.19989 29.5 7.59989Z" fill="white"/>
</svg>
